# xmcd
#
# Track frame offsets: 
#        150
#        51377
#        121246
#        138096
#        150566
#        177151
#
# Disc length: 2733 seconds
#
# Revision: 0
# Processed by: cddbd v1.5.2PL0 Copyright (c) Steve Scherf et al.
# Submitted via: ExactAudioCopy v0.99pb5
#
DISCID=470aab06
DTITLE=Eric Clapton  - Flawless Disc 08 (MVR-362) 7-17-97
DYEAR=1900
DGENRE=
TTITLE0=1st Song-Tango
TTITLE1=Put It Where You Want It
TTITLE2=Jerry Roll
TTITLE3=In A Sentimental Mood
TTITLE4=Layla
TTITLE5=Everyday I Have The Blues
EXTD=
EXTT0=
EXTT1=
EXTT2=
EXTT3=
EXTT4=
EXTT5=
PLAYORDER=
